<svg width="25" height="25" viewBox="0 0 25 25" fill="none" xmlns="http://www.w3.org/2000/svg">
<path d="M0 6.25C0 4.52411 1.39911 3.125 3.125 3.125H21.875C23.6009 3.125 25 4.52411 25 6.25V18.75C25 20.4759 23.6009 21.875 21.875 21.875H3.125C1.39911 21.875 0 20.4759 0 18.75V6.25ZM3.125 4.6875C2.26206 4.6875 1.5625 5.38706 1.5625 6.25V6.58891L12.5 13.1514L23.4375 6.58891V6.25C23.4375 5.38706 22.7379 4.6875 21.875 4.6875H3.125ZM23.4375 8.41109L16.0811 12.8249L23.4375 17.3519V8.41109ZM23.3847 19.1541L14.5716 13.7306L12.5 14.9736L10.4284 13.7306L1.61526 19.1541C1.79335 19.8212 2.4018 20.3125 3.125 20.3125H21.875C22.5982 20.3125 23.2067 19.8212 23.3847 19.1541ZM1.5625 17.3519L8.91887 12.8249L1.5625 8.41109V17.3519Z" fill="#0000FF"/>
</svg>
